G04 EAGLE Gerber RS-274X export*
G75*
%MOMM*%
%FSLAX34Y34*%
%LPD*%
%INTop Copper*%
%IPPOS*%
%AMOC8*
5,1,8,0,0,1.08239X$1,22.5*%
G01*
%ADD10C,1.879600*%
%ADD11R,2.032000X2.032000*%
%ADD12C,2.032000*%
%ADD13C,3.116000*%
%ADD14C,1.955800*%
%ADD15C,2.540000*%
%ADD16C,1.308000*%
%ADD17C,1.308000*%


D10*
X50800Y533400D03*
X50800Y457200D03*
X57150Y165100D03*
X69850Y139700D03*
X82550Y165100D03*
X95250Y139700D03*
X107950Y165100D03*
X120650Y139700D03*
D11*
X520700Y977900D03*
D12*
X520700Y1027900D03*
D10*
X469900Y215900D03*
X469900Y241300D03*
X469900Y266700D03*
X469900Y88900D03*
X469900Y114300D03*
X469900Y139700D03*
X469900Y165100D03*
X469900Y368300D03*
X469900Y342900D03*
X469900Y317500D03*
X533400Y368300D03*
X533400Y342900D03*
X533400Y317500D03*
D11*
X520700Y838200D03*
D12*
X520700Y888200D03*
D11*
X520700Y698500D03*
D12*
X520700Y748500D03*
D11*
X520700Y558800D03*
D12*
X520700Y608800D03*
D13*
X355600Y850900D03*
X279400Y850900D03*
X254000Y1028700D03*
D14*
X127000Y989900D03*
X127000Y889000D03*
D15*
X254000Y457200D03*
X330200Y457200D03*
X330200Y736600D03*
X177800Y736600D03*
D10*
X95250Y368300D03*
X76200Y381000D03*
X95250Y393700D03*
X101600Y323850D03*
X25400Y323850D03*
D16*
X387160Y38100D02*
X400240Y38100D01*
X400240Y63500D02*
X387160Y63500D01*
X387160Y88900D02*
X400240Y88900D01*
X400240Y114300D02*
X387160Y114300D01*
X387160Y139700D02*
X400240Y139700D01*
X400240Y165100D02*
X387160Y165100D01*
X387160Y190500D02*
X400240Y190500D01*
X400240Y215900D02*
X387160Y215900D01*
X387160Y241300D02*
X400240Y241300D01*
X400240Y266700D02*
X387160Y266700D01*
X387160Y292100D02*
X400240Y292100D01*
X400240Y317500D02*
X387160Y317500D01*
X247840Y38100D02*
X234760Y38100D01*
X234760Y63500D02*
X247840Y63500D01*
X247840Y88900D02*
X234760Y88900D01*
X234760Y241300D02*
X247840Y241300D01*
X247840Y266700D02*
X234760Y266700D01*
X234760Y292100D02*
X247840Y292100D01*
X247840Y317500D02*
X234760Y317500D01*
X234760Y393700D02*
X247840Y393700D01*
X387160Y393700D02*
X400240Y393700D01*
X400240Y368300D02*
X387160Y368300D01*
X387160Y342900D02*
X400240Y342900D01*
X247840Y368300D02*
X234760Y368300D01*
X234760Y342900D02*
X247840Y342900D01*
X247840Y114300D02*
X234760Y114300D01*
D17*
X292100Y50800D03*
X317500Y50800D03*
X342900Y50800D03*
D16*
X247840Y215900D02*
X234760Y215900D01*
X234760Y190500D02*
X247840Y190500D01*
X247840Y165100D02*
X234760Y165100D01*
X234760Y139700D02*
X247840Y139700D01*
D17*
X292100Y25400D03*
X317500Y25400D03*
X342900Y25400D03*
M02*
