G04 EAGLE Gerber RS-274X export*
G75*
%MOMM*%
%FSLAX34Y34*%
%LPD*%
%INBottom Copper*%
%IPPOS*%
%AMOC8*
5,1,8,0,0,1.08239X$1,22.5*%
G01*
%ADD10C,1.879600*%
%ADD11R,2.032000X2.032000*%
%ADD12C,2.032000*%
%ADD13C,3.116000*%
%ADD14C,1.955800*%
%ADD15C,2.540000*%
%ADD16C,1.308000*%
%ADD17C,1.308000*%
%ADD18C,1.016000*%
%ADD19C,0.152400*%
%ADD20C,0.254000*%
%ADD21C,0.812800*%
%ADD22C,2.540000*%


D10*
X50800Y533400D03*
X50800Y457200D03*
X57150Y165100D03*
X69850Y139700D03*
X82550Y165100D03*
X95250Y139700D03*
X107950Y165100D03*
X120650Y139700D03*
D11*
X520700Y977900D03*
D12*
X520700Y1027900D03*
D10*
X469900Y215900D03*
X469900Y241300D03*
X469900Y266700D03*
X469900Y88900D03*
X469900Y114300D03*
X469900Y139700D03*
X469900Y165100D03*
X469900Y368300D03*
X469900Y342900D03*
X469900Y317500D03*
X533400Y368300D03*
X533400Y342900D03*
X533400Y317500D03*
D11*
X520700Y838200D03*
D12*
X520700Y888200D03*
D11*
X520700Y698500D03*
D12*
X520700Y748500D03*
D11*
X520700Y558800D03*
D12*
X520700Y608800D03*
D13*
X355600Y850900D03*
X279400Y850900D03*
X254000Y1028700D03*
D14*
X127000Y989900D03*
X127000Y889000D03*
D15*
X254000Y457200D03*
X330200Y457200D03*
X330200Y736600D03*
X177800Y736600D03*
D10*
X95250Y368300D03*
X76200Y381000D03*
X95250Y393700D03*
X101600Y323850D03*
X25400Y323850D03*
D16*
X387160Y38100D02*
X400240Y38100D01*
X400240Y63500D02*
X387160Y63500D01*
X387160Y88900D02*
X400240Y88900D01*
X400240Y114300D02*
X387160Y114300D01*
X387160Y139700D02*
X400240Y139700D01*
X400240Y165100D02*
X387160Y165100D01*
X387160Y190500D02*
X400240Y190500D01*
X400240Y215900D02*
X387160Y215900D01*
X387160Y241300D02*
X400240Y241300D01*
X400240Y266700D02*
X387160Y266700D01*
X387160Y292100D02*
X400240Y292100D01*
X400240Y317500D02*
X387160Y317500D01*
X247840Y38100D02*
X234760Y38100D01*
X234760Y63500D02*
X247840Y63500D01*
X247840Y88900D02*
X234760Y88900D01*
X234760Y241300D02*
X247840Y241300D01*
X247840Y266700D02*
X234760Y266700D01*
X234760Y292100D02*
X247840Y292100D01*
X247840Y317500D02*
X234760Y317500D01*
X234760Y393700D02*
X247840Y393700D01*
X387160Y393700D02*
X400240Y393700D01*
X400240Y368300D02*
X387160Y368300D01*
X387160Y342900D02*
X400240Y342900D01*
X247840Y368300D02*
X234760Y368300D01*
X234760Y342900D02*
X247840Y342900D01*
X247840Y114300D02*
X234760Y114300D01*
D17*
X292100Y50800D03*
X317500Y50800D03*
X342900Y50800D03*
D16*
X247840Y215900D02*
X234760Y215900D01*
X234760Y190500D02*
X247840Y190500D01*
X247840Y165100D02*
X234760Y165100D01*
X234760Y139700D02*
X247840Y139700D01*
D17*
X292100Y25400D03*
X317500Y25400D03*
X342900Y25400D03*
D18*
X241300Y63500D02*
X222250Y63500D01*
X165100Y120650D01*
X508000Y292100D02*
X533400Y317500D01*
X508000Y292100D02*
X508000Y254000D01*
X469900Y215900D01*
D19*
X96012Y368808D02*
X95250Y368300D01*
D18*
X114300Y368300D02*
X165100Y419100D01*
X114300Y368300D02*
X95250Y368300D01*
X165100Y419100D02*
X301625Y419100D01*
X330200Y457200D01*
X95250Y139700D02*
X95250Y120650D01*
X165100Y120650D01*
X95250Y349250D02*
X95250Y368300D01*
X95250Y349250D02*
X25400Y279400D01*
X69850Y120650D02*
X95250Y120650D01*
X69850Y120650D02*
X69850Y139700D01*
X69850Y120650D02*
X57150Y120650D01*
X25400Y152400D01*
X25400Y279400D01*
X393700Y114300D02*
X412750Y114300D01*
X438150Y88900D01*
X469900Y88900D01*
X533400Y152400D01*
X533400Y317500D01*
X266700Y63500D02*
X241300Y63500D01*
X266700Y63500D02*
X317500Y114300D01*
X393700Y114300D01*
X76200Y381000D02*
X25400Y330200D01*
X25400Y323850D01*
X50800Y812800D02*
X127000Y889000D01*
X50800Y812800D02*
X50800Y533400D01*
X25400Y508000D01*
X25400Y444500D01*
X57150Y431800D02*
X95250Y393700D01*
X57150Y431800D02*
X38100Y431800D01*
X25400Y444500D01*
D20*
X127000Y989900D02*
X127700Y989900D01*
D18*
X165100Y952500D01*
X165100Y825500D01*
X101600Y762000D02*
X101600Y476250D01*
X82550Y476250D02*
X63500Y457200D01*
X50800Y457200D01*
X101600Y762000D02*
X165100Y825500D01*
X234950Y476250D02*
X254000Y457200D01*
X234950Y476250D02*
X101600Y476250D01*
X203200Y114300D02*
X241300Y114300D01*
X203200Y114300D02*
X177800Y139700D01*
X120650Y139700D01*
X495300Y304800D02*
X533400Y342900D01*
X495300Y304800D02*
X469900Y274320D01*
X469900Y266700D01*
D21*
X298450Y152400D02*
X260350Y114300D01*
X241300Y114300D01*
X457200Y152400D02*
X469900Y165100D01*
X317500Y152400D02*
X298450Y152400D01*
X317500Y152400D02*
X457200Y152400D01*
D19*
X533400Y342900D02*
X534924Y342900D01*
X254508Y457200D02*
X254000Y457200D01*
D20*
X274230Y474901D02*
X275771Y476250D01*
D18*
X274230Y474901D02*
X254000Y457200D01*
X275771Y476250D02*
X514350Y476250D01*
X551278Y455148D01*
D20*
X552450Y454479D01*
D18*
X101600Y476250D02*
X82550Y476250D01*
X551278Y455148D02*
X565150Y441276D01*
X565150Y373126D02*
X534924Y342900D01*
X565150Y373126D02*
X565150Y441276D01*
X457200Y279400D02*
X469900Y266700D01*
D21*
X368300Y279400D02*
X317500Y228600D01*
X317500Y152400D01*
X368300Y279400D02*
X457200Y279400D01*
D18*
X171450Y393700D02*
X101600Y323850D01*
X171450Y393700D02*
X241300Y393700D01*
X101600Y215900D02*
X82550Y196850D01*
X82550Y165100D01*
X101600Y215900D02*
X241300Y215900D01*
X133350Y190500D02*
X107950Y165100D01*
X133350Y190500D02*
X241300Y190500D01*
D22*
X215900Y990600D02*
X254000Y1028700D01*
X215900Y990600D02*
X215900Y850900D01*
X330200Y736600D01*
X519176Y608800D02*
X520700Y608800D01*
D19*
X521208Y609600D01*
X527304Y615696D01*
D22*
X520700Y608800D02*
X495300Y608800D01*
X367500Y736600D01*
X330200Y736600D01*
X558800Y939800D02*
X520700Y977900D01*
X558800Y939800D02*
X558800Y838200D01*
X558800Y698500D01*
X558800Y596900D01*
X520700Y558800D01*
X520700Y838200D02*
X558800Y838200D01*
X558800Y698500D02*
X520700Y698500D01*
X355600Y558800D02*
X177800Y736600D01*
X355600Y558800D02*
X520700Y558800D01*
D21*
X469900Y139700D02*
X393700Y139700D01*
D18*
X393700Y241300D02*
X469900Y241300D01*
X469900Y317500D02*
X393700Y317500D01*
X260350Y317500D02*
X241300Y317500D01*
X260350Y317500D02*
X361950Y419100D01*
X419100Y419100D01*
X469900Y368300D01*
X520700Y368300D02*
X533400Y368300D01*
X520700Y368300D02*
X508000Y355600D01*
X488950Y355600D01*
X476250Y342900D01*
X469900Y342900D01*
X139700Y292100D02*
X57150Y209550D01*
X139700Y292100D02*
X241300Y292100D01*
X57150Y209550D02*
X57150Y165100D01*
D22*
X482600Y990600D02*
X520700Y1027900D01*
X482600Y990600D02*
X482600Y984504D01*
X482600Y889000D01*
X482600Y785876D01*
X519176Y749300D01*
X520700Y888200D02*
X519900Y889000D01*
X495300Y889000D01*
X482600Y889000D02*
X317500Y889000D01*
X279400Y850900D01*
D19*
X520700Y748500D02*
X521208Y748284D01*
X519176Y749300D01*
X495300Y982980D02*
X493776Y984504D01*
X495300Y982980D02*
X495300Y889000D01*
X493776Y984504D02*
X482600Y984504D01*
M02*
