G04 EAGLE Gerber RS-274X export*
G75*
%MOMM*%
%FSLAX34Y34*%
%LPD*%
%INSilkscreen Top*%
%IPPOS*%
%AMOC8*
5,1,8,0,0,1.08239X$1,22.5*%
G01*
%ADD10C,0.203200*%
%ADD11C,0.127000*%
%ADD12R,1.587500X1.587500*%
%ADD13C,0.101600*%


D10*
X58420Y520700D02*
X58420Y469900D01*
X50800Y469900D01*
X43180Y469900D01*
X43180Y520700D01*
X50800Y520700D01*
X58420Y520700D01*
X50800Y469900D02*
X50800Y467360D01*
X50800Y520700D02*
X50800Y523240D01*
X57150Y476250D02*
X44450Y476250D01*
D11*
X62865Y491125D02*
X67691Y491125D01*
X62865Y491125D02*
X62865Y492465D01*
X62867Y492535D01*
X62872Y492605D01*
X62882Y492675D01*
X62894Y492744D01*
X62911Y492812D01*
X62931Y492879D01*
X62954Y492946D01*
X62981Y493010D01*
X63011Y493074D01*
X63045Y493136D01*
X63081Y493195D01*
X63121Y493253D01*
X63164Y493309D01*
X63209Y493362D01*
X63258Y493413D01*
X63309Y493462D01*
X63362Y493507D01*
X63418Y493550D01*
X63476Y493590D01*
X63536Y493626D01*
X63597Y493660D01*
X63661Y493690D01*
X63725Y493717D01*
X63792Y493740D01*
X63859Y493760D01*
X63927Y493777D01*
X63996Y493789D01*
X64066Y493799D01*
X64136Y493804D01*
X64206Y493806D01*
X66350Y493806D01*
X66420Y493804D01*
X66490Y493799D01*
X66560Y493789D01*
X66629Y493777D01*
X66697Y493760D01*
X66764Y493740D01*
X66831Y493717D01*
X66895Y493690D01*
X66959Y493660D01*
X67021Y493626D01*
X67080Y493590D01*
X67138Y493550D01*
X67194Y493507D01*
X67247Y493462D01*
X67298Y493413D01*
X67347Y493362D01*
X67392Y493309D01*
X67435Y493253D01*
X67475Y493195D01*
X67511Y493135D01*
X67545Y493074D01*
X67575Y493010D01*
X67602Y492946D01*
X67625Y492879D01*
X67645Y492812D01*
X67662Y492744D01*
X67674Y492675D01*
X67684Y492605D01*
X67689Y492535D01*
X67691Y492465D01*
X67691Y491125D01*
X63937Y496794D02*
X62865Y498135D01*
X67691Y498135D01*
X67691Y499475D02*
X67691Y496794D01*
D10*
X157480Y180340D02*
X157480Y24130D01*
X157480Y180340D02*
X20320Y180340D01*
X20320Y24130D01*
X157480Y24130D01*
D11*
X77936Y102037D02*
X77936Y105791D01*
X77935Y102037D02*
X77933Y101972D01*
X77927Y101908D01*
X77917Y101844D01*
X77904Y101780D01*
X77886Y101718D01*
X77865Y101657D01*
X77841Y101597D01*
X77812Y101539D01*
X77780Y101482D01*
X77745Y101428D01*
X77707Y101376D01*
X77665Y101326D01*
X77621Y101279D01*
X77574Y101235D01*
X77524Y101193D01*
X77472Y101155D01*
X77418Y101120D01*
X77361Y101088D01*
X77303Y101059D01*
X77243Y101035D01*
X77182Y101014D01*
X77120Y100996D01*
X77056Y100983D01*
X76992Y100973D01*
X76928Y100967D01*
X76863Y100965D01*
X76327Y100965D01*
X80884Y104719D02*
X82224Y105791D01*
X82224Y100965D01*
X80884Y100965D02*
X83565Y100965D01*
D10*
X478700Y946900D02*
X478700Y1058900D01*
X543700Y1058900D01*
X553700Y1058900D01*
X553700Y946900D01*
X543700Y946900D01*
X478700Y946900D01*
X543700Y946900D02*
X543700Y1058900D01*
D11*
X493593Y967444D02*
X489839Y967444D01*
X493593Y967443D02*
X493658Y967441D01*
X493722Y967435D01*
X493786Y967425D01*
X493850Y967412D01*
X493912Y967394D01*
X493973Y967373D01*
X494033Y967349D01*
X494091Y967320D01*
X494148Y967288D01*
X494202Y967253D01*
X494254Y967215D01*
X494304Y967173D01*
X494351Y967129D01*
X494395Y967082D01*
X494437Y967032D01*
X494475Y966980D01*
X494510Y966926D01*
X494542Y966869D01*
X494571Y966811D01*
X494595Y966751D01*
X494616Y966690D01*
X494634Y966628D01*
X494647Y966564D01*
X494657Y966500D01*
X494663Y966436D01*
X494665Y966371D01*
X494665Y965835D01*
X489839Y971866D02*
X489841Y971934D01*
X489847Y972001D01*
X489856Y972068D01*
X489869Y972135D01*
X489886Y972200D01*
X489907Y972265D01*
X489931Y972328D01*
X489959Y972390D01*
X489990Y972450D01*
X490024Y972508D01*
X490062Y972564D01*
X490102Y972619D01*
X490146Y972670D01*
X490193Y972719D01*
X490242Y972766D01*
X490293Y972810D01*
X490348Y972850D01*
X490404Y972888D01*
X490462Y972922D01*
X490522Y972953D01*
X490584Y972981D01*
X490647Y973005D01*
X490712Y973026D01*
X490777Y973043D01*
X490844Y973056D01*
X490911Y973065D01*
X490978Y973071D01*
X491046Y973073D01*
X489839Y971866D02*
X489841Y971788D01*
X489847Y971710D01*
X489857Y971633D01*
X489870Y971556D01*
X489888Y971480D01*
X489909Y971405D01*
X489934Y971331D01*
X489963Y971259D01*
X489995Y971188D01*
X490031Y971119D01*
X490070Y971051D01*
X490113Y970986D01*
X490159Y970923D01*
X490208Y970862D01*
X490260Y970804D01*
X490315Y970749D01*
X490372Y970696D01*
X490432Y970647D01*
X490495Y970600D01*
X490560Y970557D01*
X490626Y970517D01*
X490695Y970480D01*
X490766Y970447D01*
X490838Y970417D01*
X490912Y970391D01*
X491984Y972671D02*
X491935Y972720D01*
X491883Y972767D01*
X491828Y972810D01*
X491771Y972851D01*
X491712Y972889D01*
X491651Y972923D01*
X491588Y972954D01*
X491524Y972982D01*
X491458Y973006D01*
X491392Y973026D01*
X491324Y973043D01*
X491255Y973056D01*
X491186Y973065D01*
X491116Y973071D01*
X491046Y973073D01*
X491984Y972671D02*
X494665Y970392D01*
X494665Y973073D01*
D10*
X457200Y260350D02*
X463550Y254000D01*
X457200Y260350D02*
X457200Y273050D01*
X463550Y279400D01*
X476250Y279400D02*
X482600Y273050D01*
X482600Y260350D01*
X476250Y254000D01*
X457200Y222250D02*
X457200Y209550D01*
X457200Y222250D02*
X463550Y228600D01*
X476250Y228600D02*
X482600Y222250D01*
X463550Y228600D02*
X457200Y234950D01*
X457200Y247650D01*
X463550Y254000D01*
X476250Y254000D02*
X482600Y247650D01*
X482600Y234950D01*
X476250Y228600D01*
X476250Y203200D02*
X463550Y203200D01*
X457200Y209550D01*
X476250Y203200D02*
X482600Y209550D01*
X482600Y222250D01*
X476250Y279400D02*
X463550Y279400D01*
D11*
X454223Y205444D02*
X450469Y205444D01*
X454223Y205443D02*
X454288Y205441D01*
X454352Y205435D01*
X454416Y205425D01*
X454480Y205412D01*
X454542Y205394D01*
X454603Y205373D01*
X454663Y205349D01*
X454721Y205320D01*
X454778Y205288D01*
X454832Y205253D01*
X454884Y205215D01*
X454934Y205173D01*
X454981Y205129D01*
X455025Y205082D01*
X455067Y205032D01*
X455105Y204980D01*
X455140Y204926D01*
X455172Y204869D01*
X455201Y204811D01*
X455225Y204751D01*
X455246Y204690D01*
X455264Y204628D01*
X455277Y204564D01*
X455287Y204500D01*
X455293Y204436D01*
X455295Y204371D01*
X455295Y203835D01*
X455295Y208392D02*
X455295Y209732D01*
X455293Y209803D01*
X455287Y209875D01*
X455278Y209945D01*
X455265Y210015D01*
X455248Y210085D01*
X455227Y210153D01*
X455203Y210220D01*
X455175Y210286D01*
X455144Y210350D01*
X455109Y210413D01*
X455071Y210473D01*
X455030Y210532D01*
X454986Y210588D01*
X454939Y210642D01*
X454890Y210693D01*
X454837Y210741D01*
X454782Y210787D01*
X454725Y210829D01*
X454665Y210869D01*
X454604Y210905D01*
X454540Y210938D01*
X454475Y210967D01*
X454409Y210993D01*
X454341Y211016D01*
X454272Y211035D01*
X454202Y211050D01*
X454132Y211061D01*
X454061Y211069D01*
X453990Y211073D01*
X453918Y211073D01*
X453847Y211069D01*
X453776Y211061D01*
X453706Y211050D01*
X453636Y211035D01*
X453567Y211016D01*
X453499Y210993D01*
X453433Y210967D01*
X453368Y210938D01*
X453304Y210905D01*
X453243Y210869D01*
X453183Y210829D01*
X453126Y210787D01*
X453071Y210741D01*
X453018Y210693D01*
X452969Y210642D01*
X452922Y210588D01*
X452878Y210532D01*
X452837Y210473D01*
X452799Y210413D01*
X452764Y210350D01*
X452733Y210286D01*
X452705Y210220D01*
X452681Y210153D01*
X452660Y210085D01*
X452643Y210015D01*
X452630Y209945D01*
X452621Y209875D01*
X452615Y209803D01*
X452613Y209732D01*
X450469Y210000D02*
X450469Y208392D01*
X450469Y210000D02*
X450471Y210065D01*
X450477Y210129D01*
X450487Y210193D01*
X450500Y210257D01*
X450518Y210319D01*
X450539Y210380D01*
X450563Y210440D01*
X450592Y210498D01*
X450624Y210555D01*
X450659Y210609D01*
X450697Y210661D01*
X450739Y210711D01*
X450783Y210758D01*
X450830Y210802D01*
X450880Y210844D01*
X450932Y210882D01*
X450986Y210917D01*
X451043Y210949D01*
X451101Y210978D01*
X451161Y211002D01*
X451222Y211023D01*
X451284Y211041D01*
X451348Y211054D01*
X451412Y211064D01*
X451476Y211070D01*
X451541Y211072D01*
X451606Y211070D01*
X451670Y211064D01*
X451734Y211054D01*
X451798Y211041D01*
X451860Y211023D01*
X451921Y211002D01*
X451981Y210978D01*
X452039Y210949D01*
X452096Y210917D01*
X452150Y210882D01*
X452202Y210844D01*
X452252Y210802D01*
X452299Y210758D01*
X452343Y210711D01*
X452385Y210661D01*
X452423Y210609D01*
X452458Y210555D01*
X452490Y210498D01*
X452519Y210440D01*
X452543Y210380D01*
X452564Y210319D01*
X452582Y210257D01*
X452595Y210193D01*
X452605Y210129D01*
X452611Y210065D01*
X452613Y210000D01*
X452614Y210000D02*
X452614Y208928D01*
D10*
X457200Y171450D02*
X457200Y158750D01*
X457200Y171450D02*
X463550Y177800D01*
X476250Y177800D02*
X482600Y171450D01*
X457200Y133350D02*
X463550Y127000D01*
X457200Y133350D02*
X457200Y146050D01*
X463550Y152400D01*
X476250Y152400D02*
X482600Y146050D01*
X482600Y133350D01*
X476250Y127000D01*
X463550Y152400D02*
X457200Y158750D01*
X476250Y152400D02*
X482600Y158750D01*
X482600Y171450D01*
X457200Y95250D02*
X457200Y82550D01*
X457200Y95250D02*
X463550Y101600D01*
X476250Y101600D02*
X482600Y95250D01*
X463550Y101600D02*
X457200Y107950D01*
X457200Y120650D01*
X463550Y127000D01*
X476250Y127000D02*
X482600Y120650D01*
X482600Y107950D01*
X476250Y101600D01*
X476250Y76200D02*
X463550Y76200D01*
X457200Y82550D01*
X476250Y76200D02*
X482600Y82550D01*
X482600Y95250D01*
X476250Y177800D02*
X463550Y177800D01*
D11*
X454223Y78444D02*
X450469Y78444D01*
X454223Y78443D02*
X454288Y78441D01*
X454352Y78435D01*
X454416Y78425D01*
X454480Y78412D01*
X454542Y78394D01*
X454603Y78373D01*
X454663Y78349D01*
X454721Y78320D01*
X454778Y78288D01*
X454832Y78253D01*
X454884Y78215D01*
X454934Y78173D01*
X454981Y78129D01*
X455025Y78082D01*
X455067Y78032D01*
X455105Y77980D01*
X455140Y77926D01*
X455172Y77869D01*
X455201Y77811D01*
X455225Y77751D01*
X455246Y77690D01*
X455264Y77628D01*
X455277Y77564D01*
X455287Y77500D01*
X455293Y77436D01*
X455295Y77371D01*
X455295Y76835D01*
X454223Y81392D02*
X450469Y82464D01*
X454223Y81392D02*
X454223Y84073D01*
X455295Y83268D02*
X453150Y83268D01*
D10*
X482600Y323850D02*
X476250Y330200D01*
X482600Y323850D02*
X482600Y311150D01*
X476250Y304800D01*
X463550Y304800D02*
X457200Y311150D01*
X457200Y323850D01*
X463550Y330200D01*
X482600Y361950D02*
X482600Y374650D01*
X482600Y361950D02*
X476250Y355600D01*
X463550Y355600D02*
X457200Y361950D01*
X476250Y355600D02*
X482600Y349250D01*
X482600Y336550D01*
X476250Y330200D01*
X463550Y330200D02*
X457200Y336550D01*
X457200Y349250D01*
X463550Y355600D01*
X463550Y381000D02*
X476250Y381000D01*
X482600Y374650D01*
X463550Y381000D02*
X457200Y374650D01*
X457200Y361950D01*
X463550Y304800D02*
X476250Y304800D01*
D11*
X484505Y374736D02*
X488259Y374736D01*
X488324Y374734D01*
X488388Y374728D01*
X488452Y374718D01*
X488516Y374705D01*
X488578Y374687D01*
X488639Y374666D01*
X488699Y374642D01*
X488757Y374613D01*
X488814Y374581D01*
X488868Y374546D01*
X488920Y374508D01*
X488970Y374466D01*
X489017Y374422D01*
X489061Y374375D01*
X489103Y374325D01*
X489141Y374273D01*
X489176Y374219D01*
X489208Y374162D01*
X489237Y374104D01*
X489261Y374044D01*
X489282Y373983D01*
X489300Y373921D01*
X489313Y373857D01*
X489323Y373793D01*
X489329Y373729D01*
X489331Y373664D01*
X489331Y373127D01*
X489331Y377684D02*
X489331Y379293D01*
X489329Y379358D01*
X489323Y379422D01*
X489313Y379486D01*
X489300Y379550D01*
X489282Y379612D01*
X489261Y379673D01*
X489237Y379733D01*
X489208Y379791D01*
X489176Y379848D01*
X489141Y379902D01*
X489103Y379954D01*
X489061Y380004D01*
X489017Y380051D01*
X488970Y380095D01*
X488920Y380137D01*
X488868Y380175D01*
X488814Y380210D01*
X488757Y380242D01*
X488699Y380271D01*
X488639Y380295D01*
X488578Y380316D01*
X488516Y380334D01*
X488452Y380347D01*
X488388Y380357D01*
X488324Y380363D01*
X488259Y380365D01*
X487722Y380365D01*
X487657Y380363D01*
X487593Y380357D01*
X487529Y380347D01*
X487465Y380334D01*
X487403Y380316D01*
X487342Y380295D01*
X487282Y380271D01*
X487224Y380242D01*
X487167Y380210D01*
X487113Y380175D01*
X487061Y380137D01*
X487011Y380095D01*
X486964Y380051D01*
X486920Y380004D01*
X486878Y379954D01*
X486840Y379902D01*
X486805Y379848D01*
X486773Y379791D01*
X486744Y379733D01*
X486720Y379673D01*
X486699Y379612D01*
X486681Y379550D01*
X486668Y379486D01*
X486658Y379422D01*
X486652Y379358D01*
X486650Y379293D01*
X486650Y377684D01*
X484505Y377684D01*
X484505Y380365D01*
D10*
X539750Y330200D02*
X546100Y323850D01*
X546100Y311150D01*
X539750Y304800D01*
X527050Y304800D02*
X520700Y311150D01*
X520700Y323850D01*
X527050Y330200D01*
X546100Y361950D02*
X546100Y374650D01*
X546100Y361950D02*
X539750Y355600D01*
X527050Y355600D02*
X520700Y361950D01*
X539750Y355600D02*
X546100Y349250D01*
X546100Y336550D01*
X539750Y330200D01*
X527050Y330200D02*
X520700Y336550D01*
X520700Y349250D01*
X527050Y355600D01*
X527050Y381000D02*
X539750Y381000D01*
X546100Y374650D01*
X527050Y381000D02*
X520700Y374650D01*
X520700Y361950D01*
X527050Y304800D02*
X539750Y304800D01*
D11*
X548005Y374736D02*
X551759Y374736D01*
X551824Y374734D01*
X551888Y374728D01*
X551952Y374718D01*
X552016Y374705D01*
X552078Y374687D01*
X552139Y374666D01*
X552199Y374642D01*
X552257Y374613D01*
X552314Y374581D01*
X552368Y374546D01*
X552420Y374508D01*
X552470Y374466D01*
X552517Y374422D01*
X552561Y374375D01*
X552603Y374325D01*
X552641Y374273D01*
X552676Y374219D01*
X552708Y374162D01*
X552737Y374104D01*
X552761Y374044D01*
X552782Y373983D01*
X552800Y373921D01*
X552813Y373857D01*
X552823Y373793D01*
X552829Y373729D01*
X552831Y373664D01*
X552831Y373127D01*
X550150Y377684D02*
X550150Y379293D01*
X550152Y379358D01*
X550158Y379422D01*
X550168Y379486D01*
X550181Y379550D01*
X550199Y379612D01*
X550220Y379673D01*
X550244Y379733D01*
X550273Y379791D01*
X550305Y379848D01*
X550340Y379902D01*
X550378Y379954D01*
X550420Y380004D01*
X550464Y380051D01*
X550511Y380095D01*
X550561Y380137D01*
X550613Y380175D01*
X550667Y380210D01*
X550724Y380242D01*
X550782Y380271D01*
X550842Y380295D01*
X550903Y380316D01*
X550965Y380334D01*
X551029Y380347D01*
X551093Y380357D01*
X551157Y380363D01*
X551222Y380365D01*
X551490Y380365D01*
X551561Y380363D01*
X551633Y380357D01*
X551703Y380348D01*
X551773Y380335D01*
X551843Y380318D01*
X551911Y380297D01*
X551978Y380273D01*
X552044Y380245D01*
X552108Y380214D01*
X552171Y380179D01*
X552231Y380141D01*
X552290Y380100D01*
X552346Y380056D01*
X552400Y380009D01*
X552451Y379960D01*
X552499Y379907D01*
X552545Y379852D01*
X552587Y379795D01*
X552627Y379735D01*
X552663Y379674D01*
X552696Y379610D01*
X552725Y379545D01*
X552751Y379479D01*
X552774Y379411D01*
X552793Y379342D01*
X552808Y379272D01*
X552819Y379202D01*
X552827Y379131D01*
X552831Y379060D01*
X552831Y378988D01*
X552827Y378917D01*
X552819Y378846D01*
X552808Y378776D01*
X552793Y378706D01*
X552774Y378637D01*
X552751Y378569D01*
X552725Y378503D01*
X552696Y378438D01*
X552663Y378374D01*
X552627Y378313D01*
X552587Y378253D01*
X552545Y378196D01*
X552499Y378141D01*
X552451Y378088D01*
X552400Y378039D01*
X552346Y377992D01*
X552290Y377948D01*
X552231Y377907D01*
X552171Y377869D01*
X552108Y377834D01*
X552044Y377803D01*
X551978Y377775D01*
X551911Y377751D01*
X551843Y377730D01*
X551773Y377713D01*
X551703Y377700D01*
X551633Y377691D01*
X551561Y377685D01*
X551490Y377683D01*
X551490Y377684D02*
X550150Y377684D01*
X550059Y377686D01*
X549968Y377692D01*
X549878Y377701D01*
X549787Y377715D01*
X549698Y377732D01*
X549610Y377753D01*
X549522Y377778D01*
X549435Y377807D01*
X549350Y377839D01*
X549266Y377874D01*
X549184Y377914D01*
X549104Y377956D01*
X549025Y378002D01*
X548949Y378052D01*
X548875Y378104D01*
X548802Y378160D01*
X548733Y378219D01*
X548666Y378280D01*
X548601Y378345D01*
X548540Y378412D01*
X548481Y378481D01*
X548425Y378553D01*
X548373Y378628D01*
X548323Y378704D01*
X548277Y378783D01*
X548235Y378863D01*
X548195Y378945D01*
X548160Y379029D01*
X548128Y379114D01*
X548099Y379201D01*
X548074Y379288D01*
X548053Y379377D01*
X548036Y379466D01*
X548022Y379556D01*
X548013Y379647D01*
X548007Y379738D01*
X548005Y379829D01*
D10*
X478700Y807200D02*
X478700Y919200D01*
X543700Y919200D01*
X553700Y919200D01*
X553700Y807200D01*
X543700Y807200D01*
X478700Y807200D01*
X543700Y807200D02*
X543700Y919200D01*
D11*
X493593Y827744D02*
X489839Y827744D01*
X493593Y827743D02*
X493658Y827741D01*
X493722Y827735D01*
X493786Y827725D01*
X493850Y827712D01*
X493912Y827694D01*
X493973Y827673D01*
X494033Y827649D01*
X494091Y827620D01*
X494148Y827588D01*
X494202Y827553D01*
X494254Y827515D01*
X494304Y827473D01*
X494351Y827429D01*
X494395Y827382D01*
X494437Y827332D01*
X494475Y827280D01*
X494510Y827226D01*
X494542Y827169D01*
X494571Y827111D01*
X494595Y827051D01*
X494616Y826990D01*
X494634Y826928D01*
X494647Y826864D01*
X494657Y826800D01*
X494663Y826736D01*
X494665Y826671D01*
X494665Y826135D01*
X490375Y830692D02*
X489839Y830692D01*
X489839Y833373D01*
X494665Y832032D01*
D10*
X478700Y779500D02*
X478700Y667500D01*
X478700Y779500D02*
X543700Y779500D01*
X553700Y779500D01*
X553700Y667500D01*
X543700Y667500D01*
X478700Y667500D01*
X543700Y667500D02*
X543700Y779500D01*
D11*
X493593Y688044D02*
X489839Y688044D01*
X493593Y688043D02*
X493658Y688041D01*
X493722Y688035D01*
X493786Y688025D01*
X493850Y688012D01*
X493912Y687994D01*
X493973Y687973D01*
X494033Y687949D01*
X494091Y687920D01*
X494148Y687888D01*
X494202Y687853D01*
X494254Y687815D01*
X494304Y687773D01*
X494351Y687729D01*
X494395Y687682D01*
X494437Y687632D01*
X494475Y687580D01*
X494510Y687526D01*
X494542Y687469D01*
X494571Y687411D01*
X494595Y687351D01*
X494616Y687290D01*
X494634Y687228D01*
X494647Y687164D01*
X494657Y687100D01*
X494663Y687036D01*
X494665Y686971D01*
X494665Y686435D01*
X493324Y690991D02*
X493253Y690993D01*
X493181Y690999D01*
X493111Y691008D01*
X493041Y691021D01*
X492971Y691038D01*
X492903Y691059D01*
X492836Y691083D01*
X492770Y691111D01*
X492706Y691142D01*
X492643Y691177D01*
X492583Y691215D01*
X492524Y691256D01*
X492468Y691300D01*
X492414Y691347D01*
X492363Y691396D01*
X492315Y691449D01*
X492269Y691504D01*
X492227Y691561D01*
X492187Y691621D01*
X492151Y691682D01*
X492118Y691746D01*
X492089Y691811D01*
X492063Y691877D01*
X492040Y691945D01*
X492021Y692014D01*
X492006Y692084D01*
X491995Y692154D01*
X491987Y692225D01*
X491983Y692296D01*
X491983Y692368D01*
X491987Y692439D01*
X491995Y692510D01*
X492006Y692580D01*
X492021Y692650D01*
X492040Y692719D01*
X492063Y692787D01*
X492089Y692853D01*
X492118Y692918D01*
X492151Y692982D01*
X492187Y693043D01*
X492227Y693103D01*
X492269Y693160D01*
X492315Y693215D01*
X492363Y693268D01*
X492414Y693317D01*
X492468Y693364D01*
X492524Y693408D01*
X492583Y693449D01*
X492643Y693487D01*
X492706Y693522D01*
X492770Y693553D01*
X492836Y693581D01*
X492903Y693605D01*
X492971Y693626D01*
X493041Y693643D01*
X493111Y693656D01*
X493181Y693665D01*
X493253Y693671D01*
X493324Y693673D01*
X493395Y693671D01*
X493467Y693665D01*
X493537Y693656D01*
X493607Y693643D01*
X493677Y693626D01*
X493745Y693605D01*
X493812Y693581D01*
X493878Y693553D01*
X493942Y693522D01*
X494005Y693487D01*
X494065Y693449D01*
X494124Y693408D01*
X494180Y693364D01*
X494234Y693317D01*
X494285Y693268D01*
X494333Y693215D01*
X494379Y693160D01*
X494421Y693103D01*
X494461Y693043D01*
X494497Y692982D01*
X494530Y692918D01*
X494559Y692853D01*
X494585Y692787D01*
X494608Y692719D01*
X494627Y692650D01*
X494642Y692580D01*
X494653Y692510D01*
X494661Y692439D01*
X494665Y692368D01*
X494665Y692296D01*
X494661Y692225D01*
X494653Y692154D01*
X494642Y692084D01*
X494627Y692014D01*
X494608Y691945D01*
X494585Y691877D01*
X494559Y691811D01*
X494530Y691746D01*
X494497Y691682D01*
X494461Y691621D01*
X494421Y691561D01*
X494379Y691504D01*
X494333Y691449D01*
X494285Y691396D01*
X494234Y691347D01*
X494180Y691300D01*
X494124Y691256D01*
X494065Y691215D01*
X494005Y691177D01*
X493942Y691142D01*
X493878Y691111D01*
X493812Y691083D01*
X493745Y691059D01*
X493677Y691038D01*
X493607Y691021D01*
X493537Y691008D01*
X493467Y690999D01*
X493395Y690993D01*
X493324Y690991D01*
X490911Y691260D02*
X490846Y691262D01*
X490782Y691268D01*
X490718Y691278D01*
X490654Y691291D01*
X490592Y691309D01*
X490531Y691330D01*
X490471Y691354D01*
X490413Y691383D01*
X490356Y691415D01*
X490302Y691450D01*
X490250Y691488D01*
X490200Y691530D01*
X490153Y691574D01*
X490109Y691621D01*
X490067Y691671D01*
X490029Y691723D01*
X489994Y691777D01*
X489962Y691834D01*
X489933Y691892D01*
X489909Y691952D01*
X489888Y692013D01*
X489870Y692075D01*
X489857Y692139D01*
X489847Y692203D01*
X489841Y692267D01*
X489839Y692332D01*
X489841Y692397D01*
X489847Y692461D01*
X489857Y692525D01*
X489870Y692589D01*
X489888Y692651D01*
X489909Y692712D01*
X489933Y692772D01*
X489962Y692830D01*
X489994Y692887D01*
X490029Y692941D01*
X490067Y692993D01*
X490109Y693043D01*
X490153Y693090D01*
X490200Y693134D01*
X490250Y693176D01*
X490302Y693214D01*
X490356Y693249D01*
X490413Y693281D01*
X490471Y693310D01*
X490531Y693334D01*
X490592Y693355D01*
X490654Y693373D01*
X490718Y693386D01*
X490782Y693396D01*
X490846Y693402D01*
X490911Y693404D01*
X490976Y693402D01*
X491040Y693396D01*
X491104Y693386D01*
X491168Y693373D01*
X491230Y693355D01*
X491291Y693334D01*
X491351Y693310D01*
X491409Y693281D01*
X491466Y693249D01*
X491520Y693214D01*
X491572Y693176D01*
X491622Y693134D01*
X491669Y693090D01*
X491713Y693043D01*
X491755Y692993D01*
X491793Y692941D01*
X491828Y692887D01*
X491860Y692830D01*
X491889Y692772D01*
X491913Y692712D01*
X491934Y692651D01*
X491952Y692589D01*
X491965Y692525D01*
X491975Y692461D01*
X491981Y692397D01*
X491983Y692332D01*
X491981Y692267D01*
X491975Y692203D01*
X491965Y692139D01*
X491952Y692075D01*
X491934Y692013D01*
X491913Y691952D01*
X491889Y691892D01*
X491860Y691834D01*
X491828Y691777D01*
X491793Y691723D01*
X491755Y691671D01*
X491713Y691621D01*
X491669Y691574D01*
X491622Y691530D01*
X491572Y691488D01*
X491520Y691450D01*
X491466Y691415D01*
X491409Y691383D01*
X491351Y691354D01*
X491291Y691330D01*
X491230Y691309D01*
X491168Y691291D01*
X491104Y691278D01*
X491040Y691268D01*
X490976Y691262D01*
X490911Y691260D01*
D10*
X478700Y639800D02*
X478700Y527800D01*
X478700Y639800D02*
X543700Y639800D01*
X553700Y639800D01*
X553700Y527800D01*
X543700Y527800D01*
X478700Y527800D01*
X543700Y527800D02*
X543700Y639800D01*
D11*
X493593Y548344D02*
X489839Y548344D01*
X493593Y548343D02*
X493658Y548341D01*
X493722Y548335D01*
X493786Y548325D01*
X493850Y548312D01*
X493912Y548294D01*
X493973Y548273D01*
X494033Y548249D01*
X494091Y548220D01*
X494148Y548188D01*
X494202Y548153D01*
X494254Y548115D01*
X494304Y548073D01*
X494351Y548029D01*
X494395Y547982D01*
X494437Y547932D01*
X494475Y547880D01*
X494510Y547826D01*
X494542Y547769D01*
X494571Y547711D01*
X494595Y547651D01*
X494616Y547590D01*
X494634Y547528D01*
X494647Y547464D01*
X494657Y547400D01*
X494663Y547336D01*
X494665Y547271D01*
X494665Y546735D01*
X492520Y552364D02*
X492520Y553973D01*
X492520Y552364D02*
X492518Y552299D01*
X492512Y552235D01*
X492502Y552171D01*
X492489Y552107D01*
X492471Y552045D01*
X492450Y551984D01*
X492426Y551924D01*
X492397Y551866D01*
X492365Y551809D01*
X492330Y551755D01*
X492292Y551703D01*
X492250Y551653D01*
X492206Y551606D01*
X492159Y551562D01*
X492109Y551520D01*
X492057Y551482D01*
X492003Y551447D01*
X491946Y551415D01*
X491888Y551386D01*
X491828Y551362D01*
X491767Y551341D01*
X491705Y551323D01*
X491641Y551310D01*
X491577Y551300D01*
X491513Y551294D01*
X491448Y551292D01*
X491180Y551292D01*
X491180Y551291D02*
X491109Y551293D01*
X491037Y551299D01*
X490967Y551308D01*
X490897Y551321D01*
X490827Y551338D01*
X490759Y551359D01*
X490692Y551383D01*
X490626Y551411D01*
X490562Y551442D01*
X490499Y551477D01*
X490439Y551515D01*
X490380Y551556D01*
X490324Y551600D01*
X490270Y551647D01*
X490219Y551696D01*
X490171Y551749D01*
X490125Y551804D01*
X490083Y551861D01*
X490043Y551921D01*
X490007Y551982D01*
X489974Y552046D01*
X489945Y552111D01*
X489919Y552177D01*
X489896Y552245D01*
X489877Y552314D01*
X489862Y552384D01*
X489851Y552454D01*
X489843Y552525D01*
X489839Y552596D01*
X489839Y552668D01*
X489843Y552739D01*
X489851Y552810D01*
X489862Y552880D01*
X489877Y552950D01*
X489896Y553019D01*
X489919Y553087D01*
X489945Y553153D01*
X489974Y553218D01*
X490007Y553282D01*
X490043Y553343D01*
X490083Y553403D01*
X490125Y553460D01*
X490171Y553515D01*
X490219Y553568D01*
X490270Y553617D01*
X490324Y553664D01*
X490380Y553708D01*
X490439Y553749D01*
X490499Y553787D01*
X490562Y553822D01*
X490626Y553853D01*
X490692Y553881D01*
X490759Y553905D01*
X490827Y553926D01*
X490897Y553943D01*
X490967Y553956D01*
X491037Y553965D01*
X491109Y553971D01*
X491180Y553973D01*
X492520Y553973D01*
X492611Y553971D01*
X492702Y553965D01*
X492792Y553956D01*
X492883Y553942D01*
X492972Y553925D01*
X493060Y553904D01*
X493148Y553879D01*
X493235Y553850D01*
X493320Y553818D01*
X493404Y553783D01*
X493486Y553743D01*
X493566Y553701D01*
X493645Y553655D01*
X493721Y553605D01*
X493795Y553553D01*
X493868Y553497D01*
X493937Y553438D01*
X494004Y553377D01*
X494069Y553312D01*
X494130Y553245D01*
X494189Y553176D01*
X494245Y553103D01*
X494297Y553029D01*
X494347Y552953D01*
X494393Y552874D01*
X494435Y552794D01*
X494475Y552712D01*
X494510Y552628D01*
X494542Y552543D01*
X494571Y552456D01*
X494596Y552368D01*
X494617Y552280D01*
X494634Y552191D01*
X494648Y552100D01*
X494657Y552010D01*
X494663Y551919D01*
X494665Y551828D01*
D10*
X391100Y803550D02*
X391100Y1057550D01*
X382000Y793550D02*
X264250Y793550D01*
X222600Y1067550D02*
X382000Y1067550D01*
X382245Y1067521D01*
X382489Y1067486D01*
X382732Y1067445D01*
X382974Y1067399D01*
X383215Y1067346D01*
X383454Y1067288D01*
X383692Y1067224D01*
X383929Y1067154D01*
X384163Y1067078D01*
X384396Y1066997D01*
X384626Y1066910D01*
X384855Y1066818D01*
X385081Y1066720D01*
X385305Y1066617D01*
X385526Y1066508D01*
X385745Y1066394D01*
X385960Y1066274D01*
X386173Y1066150D01*
X386383Y1066020D01*
X386589Y1065885D01*
X386792Y1065746D01*
X386992Y1065601D01*
X387188Y1065452D01*
X387380Y1065298D01*
X387569Y1065139D01*
X387754Y1064976D01*
X387934Y1064809D01*
X388111Y1064637D01*
X388283Y1064460D01*
X388451Y1064280D01*
X388615Y1064096D01*
X388774Y1063908D01*
X388929Y1063716D01*
X389079Y1063520D01*
X389224Y1063321D01*
X389364Y1063118D01*
X389499Y1062912D01*
X389629Y1062703D01*
X389755Y1062490D01*
X389875Y1062275D01*
X389989Y1062057D01*
X390099Y1061836D01*
X390203Y1061612D01*
X390301Y1061387D01*
X390394Y1061158D01*
X390482Y1060928D01*
X390563Y1060695D01*
X390640Y1060461D01*
X390710Y1060225D01*
X390775Y1059987D01*
X390834Y1059748D01*
X390887Y1059507D01*
X390935Y1059265D01*
X390976Y1059022D01*
X391012Y1058778D01*
X391041Y1058534D01*
X391065Y1058288D01*
X391083Y1058042D01*
X391094Y1057796D01*
X391100Y1057550D01*
X391100Y803550D02*
X391127Y803338D01*
X391147Y803125D01*
X391163Y802912D01*
X391174Y802698D01*
X391179Y802484D01*
X391179Y802270D01*
X391174Y802056D01*
X391164Y801843D01*
X391149Y801629D01*
X391129Y801416D01*
X391103Y801204D01*
X391072Y800992D01*
X391036Y800781D01*
X390995Y800571D01*
X390949Y800362D01*
X390898Y800155D01*
X390842Y799948D01*
X390781Y799743D01*
X390715Y799540D01*
X390644Y799338D01*
X390568Y799138D01*
X390487Y798940D01*
X390402Y798744D01*
X390311Y798550D01*
X390216Y798358D01*
X390117Y798169D01*
X390013Y797982D01*
X389904Y797798D01*
X389791Y797616D01*
X389674Y797437D01*
X389552Y797261D01*
X389426Y797088D01*
X389296Y796918D01*
X389162Y796752D01*
X389024Y796588D01*
X388882Y796428D01*
X388736Y796272D01*
X388587Y796119D01*
X388433Y795970D01*
X388276Y795824D01*
X388116Y795683D01*
X387952Y795545D01*
X387785Y795411D01*
X387615Y795282D01*
X387442Y795157D01*
X387265Y795035D01*
X387086Y794918D01*
X386904Y794806D01*
X386720Y794698D01*
X386533Y794594D01*
X386343Y794495D01*
X386151Y794401D01*
X385957Y794311D01*
X385760Y794226D01*
X385562Y794146D01*
X385362Y794071D01*
X385160Y794001D01*
X384956Y793935D01*
X384751Y793874D01*
X384544Y793819D01*
X384337Y793768D01*
X384128Y793723D01*
X383917Y793682D01*
X383706Y793647D01*
X383495Y793617D01*
X383282Y793592D01*
X383069Y793572D01*
X382856Y793557D01*
X382642Y793548D01*
X382428Y793543D01*
X382214Y793544D01*
X382000Y793550D01*
X215100Y1054550D02*
X215100Y1060550D01*
X256750Y835200D02*
X256750Y800550D01*
X207600Y1047550D02*
X68250Y1047550D01*
X69250Y842200D02*
X249250Y842200D01*
X61750Y849200D02*
X61750Y1040550D01*
X215100Y1060550D02*
X215106Y1060723D01*
X215116Y1060896D01*
X215130Y1061069D01*
X215149Y1061241D01*
X215171Y1061413D01*
X215198Y1061584D01*
X215229Y1061754D01*
X215264Y1061924D01*
X215303Y1062093D01*
X215346Y1062261D01*
X215393Y1062427D01*
X215445Y1062593D01*
X215500Y1062757D01*
X215559Y1062920D01*
X215622Y1063081D01*
X215689Y1063241D01*
X215760Y1063399D01*
X215834Y1063555D01*
X215913Y1063710D01*
X215995Y1063862D01*
X216081Y1064013D01*
X216170Y1064161D01*
X216263Y1064308D01*
X216359Y1064451D01*
X216459Y1064593D01*
X216562Y1064732D01*
X216669Y1064869D01*
X216779Y1065003D01*
X216892Y1065134D01*
X217008Y1065262D01*
X217127Y1065388D01*
X217250Y1065511D01*
X217375Y1065630D01*
X217503Y1065747D01*
X217634Y1065861D01*
X217767Y1065971D01*
X217903Y1066078D01*
X218042Y1066182D01*
X218183Y1066282D01*
X218327Y1066379D01*
X218473Y1066473D01*
X218621Y1066562D01*
X218771Y1066649D01*
X218923Y1066731D01*
X219078Y1066810D01*
X219234Y1066885D01*
X219392Y1066957D01*
X219551Y1067024D01*
X219712Y1067088D01*
X219875Y1067148D01*
X220039Y1067204D01*
X220204Y1067255D01*
X220371Y1067303D01*
X220538Y1067347D01*
X220707Y1067387D01*
X220876Y1067422D01*
X221047Y1067454D01*
X221218Y1067481D01*
X221390Y1067504D01*
X221562Y1067523D01*
X221734Y1067538D01*
X221907Y1067549D01*
X222080Y1067556D01*
X222254Y1067558D01*
X222427Y1067556D01*
X222600Y1067550D01*
X215099Y1054550D02*
X215080Y1054364D01*
X215056Y1054179D01*
X215027Y1053994D01*
X214994Y1053810D01*
X214956Y1053627D01*
X214914Y1053444D01*
X214868Y1053263D01*
X214817Y1053083D01*
X214762Y1052905D01*
X214703Y1052727D01*
X214639Y1052551D01*
X214571Y1052377D01*
X214499Y1052205D01*
X214423Y1052034D01*
X214342Y1051865D01*
X214258Y1051698D01*
X214169Y1051534D01*
X214077Y1051371D01*
X213980Y1051211D01*
X213880Y1051053D01*
X213776Y1050897D01*
X213668Y1050745D01*
X213557Y1050594D01*
X213442Y1050447D01*
X213323Y1050302D01*
X213201Y1050161D01*
X213076Y1050022D01*
X212947Y1049886D01*
X212815Y1049754D01*
X212680Y1049625D01*
X212542Y1049499D01*
X212401Y1049376D01*
X212257Y1049257D01*
X212109Y1049141D01*
X211960Y1049029D01*
X211807Y1048921D01*
X211652Y1048817D01*
X211495Y1048716D01*
X211335Y1048619D01*
X211173Y1048526D01*
X211008Y1048437D01*
X210842Y1048352D01*
X210673Y1048271D01*
X210503Y1048194D01*
X210330Y1048121D01*
X210156Y1048052D01*
X209981Y1047988D01*
X209804Y1047928D01*
X209625Y1047872D01*
X209446Y1047821D01*
X209265Y1047774D01*
X209082Y1047731D01*
X208899Y1047693D01*
X208716Y1047659D01*
X208531Y1047629D01*
X208345Y1047605D01*
X208160Y1047584D01*
X207973Y1047568D01*
X207787Y1047557D01*
X207600Y1047550D01*
X68250Y1047550D02*
X68060Y1047513D01*
X67871Y1047472D01*
X67684Y1047426D01*
X67497Y1047376D01*
X67312Y1047321D01*
X67128Y1047261D01*
X66945Y1047197D01*
X66764Y1047129D01*
X66585Y1047056D01*
X66408Y1046979D01*
X66233Y1046898D01*
X66059Y1046813D01*
X65888Y1046723D01*
X65719Y1046629D01*
X65552Y1046531D01*
X65388Y1046429D01*
X65226Y1046323D01*
X65067Y1046214D01*
X64911Y1046100D01*
X64757Y1045983D01*
X64606Y1045862D01*
X64459Y1045737D01*
X64314Y1045609D01*
X64173Y1045477D01*
X64034Y1045342D01*
X63899Y1045203D01*
X63768Y1045062D01*
X63640Y1044917D01*
X63515Y1044769D01*
X63394Y1044618D01*
X63277Y1044465D01*
X63164Y1044308D01*
X63054Y1044149D01*
X62949Y1043987D01*
X62847Y1043823D01*
X62749Y1043656D01*
X62656Y1043487D01*
X62566Y1043315D01*
X62481Y1043142D01*
X62400Y1042966D01*
X62323Y1042789D01*
X62251Y1042610D01*
X62182Y1042429D01*
X62119Y1042246D01*
X62060Y1042062D01*
X62005Y1041877D01*
X61955Y1041690D01*
X61909Y1041502D01*
X61868Y1041314D01*
X61831Y1041124D01*
X61800Y1040933D01*
X61772Y1040742D01*
X61750Y1040550D01*
X61751Y849200D02*
X61770Y849014D01*
X61794Y848829D01*
X61823Y848644D01*
X61856Y848460D01*
X61894Y848277D01*
X61936Y848094D01*
X61982Y847913D01*
X62033Y847733D01*
X62088Y847555D01*
X62147Y847377D01*
X62211Y847201D01*
X62279Y847027D01*
X62351Y846855D01*
X62427Y846684D01*
X62508Y846515D01*
X62592Y846348D01*
X62681Y846184D01*
X62773Y846021D01*
X62870Y845861D01*
X62970Y845703D01*
X63074Y845547D01*
X63182Y845395D01*
X63293Y845244D01*
X63408Y845097D01*
X63527Y844952D01*
X63649Y844811D01*
X63774Y844672D01*
X63903Y844536D01*
X64035Y844404D01*
X64170Y844275D01*
X64308Y844149D01*
X64449Y844026D01*
X64593Y843907D01*
X64741Y843791D01*
X64890Y843679D01*
X65043Y843571D01*
X65198Y843467D01*
X65355Y843366D01*
X65515Y843269D01*
X65677Y843176D01*
X65842Y843087D01*
X66008Y843002D01*
X66177Y842921D01*
X66347Y842844D01*
X66520Y842771D01*
X66694Y842702D01*
X66869Y842638D01*
X67046Y842578D01*
X67225Y842522D01*
X67404Y842471D01*
X67585Y842424D01*
X67768Y842381D01*
X67951Y842343D01*
X68134Y842309D01*
X68319Y842279D01*
X68505Y842255D01*
X68690Y842234D01*
X68877Y842218D01*
X69063Y842207D01*
X69250Y842200D01*
X249250Y842200D02*
X249437Y842193D01*
X249623Y842182D01*
X249810Y842166D01*
X249995Y842145D01*
X250181Y842121D01*
X250366Y842091D01*
X250549Y842057D01*
X250732Y842019D01*
X250915Y841976D01*
X251096Y841929D01*
X251275Y841878D01*
X251454Y841822D01*
X251631Y841762D01*
X251806Y841698D01*
X251980Y841629D01*
X252153Y841556D01*
X252323Y841479D01*
X252492Y841398D01*
X252658Y841313D01*
X252823Y841224D01*
X252985Y841131D01*
X253145Y841034D01*
X253302Y840933D01*
X253457Y840829D01*
X253610Y840721D01*
X253759Y840609D01*
X253907Y840493D01*
X254051Y840374D01*
X254192Y840251D01*
X254330Y840125D01*
X254465Y839996D01*
X254597Y839864D01*
X254726Y839728D01*
X254851Y839589D01*
X254973Y839448D01*
X255092Y839303D01*
X255207Y839156D01*
X255318Y839005D01*
X255426Y838853D01*
X255530Y838697D01*
X255630Y838539D01*
X255727Y838379D01*
X255819Y838216D01*
X255908Y838052D01*
X255992Y837885D01*
X256073Y837716D01*
X256149Y837545D01*
X256221Y837373D01*
X256289Y837199D01*
X256353Y837023D01*
X256412Y836845D01*
X256467Y836667D01*
X256518Y836487D01*
X256564Y836306D01*
X256606Y836123D01*
X256644Y835940D01*
X256677Y835756D01*
X256706Y835571D01*
X256730Y835386D01*
X256749Y835200D01*
X256751Y800550D02*
X256770Y800364D01*
X256794Y800179D01*
X256823Y799994D01*
X256856Y799810D01*
X256894Y799627D01*
X256936Y799444D01*
X256982Y799263D01*
X257033Y799083D01*
X257088Y798905D01*
X257147Y798727D01*
X257211Y798551D01*
X257279Y798377D01*
X257351Y798205D01*
X257427Y798034D01*
X257508Y797865D01*
X257592Y797698D01*
X257681Y797534D01*
X257773Y797371D01*
X257870Y797211D01*
X257970Y797053D01*
X258074Y796897D01*
X258182Y796745D01*
X258293Y796594D01*
X258408Y796447D01*
X258527Y796302D01*
X258649Y796161D01*
X258774Y796022D01*
X258903Y795886D01*
X259035Y795754D01*
X259170Y795625D01*
X259308Y795499D01*
X259449Y795376D01*
X259593Y795257D01*
X259741Y795141D01*
X259890Y795029D01*
X260043Y794921D01*
X260198Y794817D01*
X260355Y794716D01*
X260515Y794619D01*
X260677Y794526D01*
X260842Y794437D01*
X261008Y794352D01*
X261177Y794271D01*
X261347Y794194D01*
X261520Y794121D01*
X261694Y794052D01*
X261869Y793988D01*
X262046Y793928D01*
X262225Y793872D01*
X262404Y793821D01*
X262585Y793774D01*
X262768Y793731D01*
X262951Y793693D01*
X263134Y793659D01*
X263319Y793629D01*
X263505Y793605D01*
X263690Y793584D01*
X263877Y793568D01*
X264063Y793557D01*
X264250Y793550D01*
D11*
X59055Y935881D02*
X54229Y935881D01*
X54229Y938562D02*
X57178Y935881D01*
X56106Y936953D02*
X59055Y938562D01*
X55301Y941038D02*
X54229Y942379D01*
X59055Y942379D01*
X59055Y943719D02*
X59055Y941038D01*
X358775Y765175D02*
X358775Y711200D01*
X361950Y711200D01*
X361950Y768350D01*
X304800Y768350D01*
X304800Y765175D01*
X358775Y765175D01*
X149225Y482600D02*
X149225Y428625D01*
X203200Y428625D01*
X203200Y425450D01*
X146050Y425450D01*
X146050Y482600D01*
X149225Y482600D01*
X149225Y765175D02*
X203200Y765175D01*
X149225Y765175D02*
X149225Y711200D01*
X146050Y711200D01*
X146050Y768350D01*
X203200Y768350D01*
X203200Y765175D01*
X358775Y482600D02*
X358775Y428625D01*
X304800Y428625D01*
X304800Y425450D01*
X361950Y425450D01*
X361950Y482600D01*
X358775Y482600D01*
D12*
X354013Y779463D03*
D13*
X371983Y717832D02*
X383667Y717832D01*
X371983Y717832D02*
X371983Y721078D01*
X371985Y721191D01*
X371991Y721304D01*
X372001Y721417D01*
X372015Y721530D01*
X372032Y721642D01*
X372054Y721753D01*
X372079Y721863D01*
X372109Y721973D01*
X372142Y722081D01*
X372179Y722188D01*
X372219Y722294D01*
X372264Y722398D01*
X372312Y722501D01*
X372363Y722602D01*
X372418Y722701D01*
X372476Y722798D01*
X372538Y722893D01*
X372603Y722986D01*
X372671Y723076D01*
X372742Y723164D01*
X372817Y723250D01*
X372894Y723333D01*
X372974Y723413D01*
X373057Y723490D01*
X373143Y723565D01*
X373231Y723636D01*
X373321Y723704D01*
X373414Y723769D01*
X373509Y723831D01*
X373606Y723889D01*
X373705Y723944D01*
X373806Y723995D01*
X373909Y724043D01*
X374013Y724088D01*
X374119Y724128D01*
X374226Y724165D01*
X374334Y724198D01*
X374444Y724228D01*
X374554Y724253D01*
X374665Y724275D01*
X374777Y724292D01*
X374890Y724306D01*
X375003Y724316D01*
X375116Y724322D01*
X375229Y724324D01*
X375342Y724322D01*
X375455Y724316D01*
X375568Y724306D01*
X375681Y724292D01*
X375793Y724275D01*
X375904Y724253D01*
X376014Y724228D01*
X376124Y724198D01*
X376232Y724165D01*
X376339Y724128D01*
X376445Y724088D01*
X376549Y724043D01*
X376652Y723995D01*
X376753Y723944D01*
X376852Y723889D01*
X376949Y723831D01*
X377044Y723769D01*
X377137Y723704D01*
X377227Y723636D01*
X377315Y723565D01*
X377401Y723490D01*
X377484Y723413D01*
X377564Y723333D01*
X377641Y723250D01*
X377716Y723164D01*
X377787Y723076D01*
X377855Y722986D01*
X377920Y722893D01*
X377982Y722798D01*
X378040Y722701D01*
X378095Y722602D01*
X378146Y722501D01*
X378194Y722398D01*
X378239Y722294D01*
X378279Y722188D01*
X378316Y722081D01*
X378349Y721973D01*
X378379Y721863D01*
X378404Y721753D01*
X378426Y721642D01*
X378443Y721530D01*
X378457Y721417D01*
X378467Y721304D01*
X378473Y721191D01*
X378475Y721078D01*
X378474Y721078D02*
X378474Y717832D01*
X371983Y728289D02*
X383667Y730885D01*
X375878Y733482D01*
X383667Y736078D01*
X371983Y738674D01*
X371983Y743645D02*
X383667Y743645D01*
X371983Y743645D02*
X371983Y746890D01*
X371985Y747003D01*
X371991Y747116D01*
X372001Y747229D01*
X372015Y747342D01*
X372032Y747454D01*
X372054Y747565D01*
X372079Y747675D01*
X372109Y747785D01*
X372142Y747893D01*
X372179Y748000D01*
X372219Y748106D01*
X372264Y748210D01*
X372312Y748313D01*
X372363Y748414D01*
X372418Y748513D01*
X372476Y748610D01*
X372538Y748705D01*
X372603Y748798D01*
X372671Y748888D01*
X372742Y748976D01*
X372817Y749062D01*
X372894Y749145D01*
X372974Y749225D01*
X373057Y749302D01*
X373143Y749377D01*
X373231Y749448D01*
X373321Y749516D01*
X373414Y749581D01*
X373509Y749643D01*
X373606Y749701D01*
X373705Y749756D01*
X373806Y749807D01*
X373909Y749855D01*
X374013Y749900D01*
X374119Y749940D01*
X374226Y749977D01*
X374334Y750010D01*
X374444Y750040D01*
X374554Y750065D01*
X374665Y750087D01*
X374777Y750104D01*
X374890Y750118D01*
X375003Y750128D01*
X375116Y750134D01*
X375229Y750136D01*
X375342Y750134D01*
X375455Y750128D01*
X375568Y750118D01*
X375681Y750104D01*
X375793Y750087D01*
X375904Y750065D01*
X376014Y750040D01*
X376124Y750010D01*
X376232Y749977D01*
X376339Y749940D01*
X376445Y749900D01*
X376549Y749855D01*
X376652Y749807D01*
X376753Y749756D01*
X376852Y749701D01*
X376949Y749643D01*
X377044Y749581D01*
X377137Y749516D01*
X377227Y749448D01*
X377315Y749377D01*
X377401Y749302D01*
X377484Y749225D01*
X377564Y749145D01*
X377641Y749062D01*
X377716Y748976D01*
X377787Y748888D01*
X377855Y748798D01*
X377920Y748705D01*
X377982Y748610D01*
X378040Y748513D01*
X378095Y748414D01*
X378146Y748313D01*
X378194Y748210D01*
X378239Y748106D01*
X378279Y748000D01*
X378316Y747893D01*
X378349Y747785D01*
X378379Y747675D01*
X378404Y747565D01*
X378426Y747454D01*
X378443Y747342D01*
X378457Y747229D01*
X378467Y747116D01*
X378473Y747003D01*
X378475Y746890D01*
X378474Y746890D02*
X378474Y743645D01*
X378474Y747539D02*
X383667Y750136D01*
X374579Y755001D02*
X371983Y758246D01*
X383667Y758246D01*
X383667Y755001D02*
X383667Y761492D01*
D10*
X111760Y360054D02*
X111247Y359660D01*
X110725Y359279D01*
X110194Y358910D01*
X109655Y358555D01*
X109106Y358212D01*
X108550Y357883D01*
X107986Y357567D01*
X107414Y357266D01*
X106835Y356978D01*
X106250Y356704D01*
X105658Y356445D01*
X105060Y356200D01*
X104456Y355969D01*
X103846Y355753D01*
X103232Y355552D01*
X102613Y355366D01*
X101989Y355196D01*
X101362Y355040D01*
X100731Y354899D01*
X100097Y354774D01*
X99460Y354664D01*
X98820Y354570D01*
X98179Y354491D01*
X97536Y354428D01*
X96891Y354381D01*
X96245Y354349D01*
X95599Y354332D01*
X94953Y354332D01*
X94306Y354347D01*
X93661Y354377D01*
X93016Y354424D01*
X92373Y354486D01*
X91731Y354563D01*
X91091Y354656D01*
X90454Y354765D01*
X89819Y354889D01*
X89188Y355028D01*
X88561Y355183D01*
X87937Y355352D01*
X87317Y355537D01*
X86703Y355737D01*
X86093Y355951D01*
X85488Y356181D01*
X84890Y356425D01*
X84297Y356683D01*
X83711Y356955D01*
X83132Y357242D01*
X82560Y357543D01*
X81995Y357857D01*
X81438Y358185D01*
X80889Y358527D01*
X80348Y358881D01*
X79817Y359249D01*
X79294Y359629D01*
X78781Y360022D01*
X78277Y360428D01*
X77784Y360845D01*
X77300Y361274D01*
X76828Y361715D01*
X76366Y362167D01*
X75915Y362631D01*
X75475Y363105D01*
X75047Y363589D01*
X74631Y364084D01*
X74227Y364588D01*
X73836Y365103D01*
X73457Y365626D01*
X73091Y366159D01*
X72737Y366701D01*
X72398Y367250D01*
X72071Y367808D01*
X71758Y368374D01*
X71459Y368947D01*
X71174Y369527D01*
X70903Y370114D01*
X70646Y370707D01*
X70404Y371306D01*
X70176Y371911D01*
X69963Y372522D01*
X69765Y373137D01*
X69765Y388863D02*
X69964Y389478D01*
X70176Y390089D01*
X70404Y390694D01*
X70646Y391293D01*
X70903Y391886D01*
X71174Y392473D01*
X71459Y393053D01*
X71758Y393626D01*
X72071Y394192D01*
X72398Y394750D01*
X72738Y395300D01*
X73091Y395841D01*
X73457Y396374D01*
X73836Y396897D01*
X74228Y397412D01*
X74632Y397916D01*
X75048Y398411D01*
X75475Y398896D01*
X75915Y399370D01*
X76366Y399833D01*
X76828Y400285D01*
X77301Y400726D01*
X77784Y401155D01*
X78278Y401572D01*
X78781Y401978D01*
X79294Y402371D01*
X79817Y402751D01*
X80349Y403119D01*
X80889Y403473D01*
X81438Y403815D01*
X81995Y404143D01*
X82560Y404457D01*
X83132Y404758D01*
X83711Y405045D01*
X84298Y405317D01*
X84890Y405576D01*
X85489Y405819D01*
X86093Y406049D01*
X86703Y406263D01*
X87318Y406463D01*
X87937Y406648D01*
X88561Y406818D01*
X89189Y406972D01*
X89820Y407111D01*
X90454Y407235D01*
X91091Y407344D01*
X91731Y407437D01*
X92373Y407514D01*
X93016Y407576D01*
X93661Y407623D01*
X94307Y407653D01*
X94953Y407668D01*
X95599Y407668D01*
X96246Y407651D01*
X96891Y407619D01*
X97536Y407572D01*
X98179Y407509D01*
X98821Y407430D01*
X99460Y407336D01*
X100097Y407226D01*
X100732Y407101D01*
X101363Y406960D01*
X101990Y406804D01*
X102613Y406633D01*
X103232Y406447D01*
X103847Y406246D01*
X104456Y406031D01*
X105060Y405800D01*
X105658Y405555D01*
X106250Y405296D01*
X106836Y405022D01*
X107415Y404734D01*
X107986Y404432D01*
X108550Y404117D01*
X109107Y403788D01*
X109655Y403445D01*
X110195Y403089D01*
X110726Y402721D01*
X111248Y402339D01*
X111760Y401945D01*
X111760Y360055D01*
X97790Y358463D02*
X97790Y354451D01*
X97790Y378137D02*
X97790Y383863D01*
X97790Y403537D02*
X97790Y407549D01*
D11*
X62794Y377113D02*
X60650Y377113D01*
X60579Y377115D01*
X60507Y377121D01*
X60437Y377130D01*
X60367Y377143D01*
X60297Y377160D01*
X60229Y377181D01*
X60162Y377205D01*
X60096Y377233D01*
X60032Y377264D01*
X59969Y377299D01*
X59909Y377337D01*
X59850Y377378D01*
X59794Y377422D01*
X59740Y377469D01*
X59689Y377518D01*
X59641Y377571D01*
X59595Y377626D01*
X59553Y377683D01*
X59513Y377743D01*
X59477Y377804D01*
X59444Y377868D01*
X59415Y377933D01*
X59389Y377999D01*
X59366Y378067D01*
X59347Y378136D01*
X59332Y378206D01*
X59321Y378276D01*
X59313Y378347D01*
X59309Y378418D01*
X59309Y378490D01*
X59313Y378561D01*
X59321Y378632D01*
X59332Y378702D01*
X59347Y378772D01*
X59366Y378841D01*
X59389Y378909D01*
X59415Y378975D01*
X59444Y379040D01*
X59477Y379104D01*
X59513Y379165D01*
X59553Y379225D01*
X59595Y379282D01*
X59641Y379337D01*
X59689Y379390D01*
X59740Y379439D01*
X59794Y379486D01*
X59850Y379530D01*
X59909Y379571D01*
X59969Y379609D01*
X60032Y379644D01*
X60096Y379675D01*
X60162Y379703D01*
X60229Y379727D01*
X60297Y379748D01*
X60367Y379765D01*
X60437Y379778D01*
X60507Y379787D01*
X60579Y379793D01*
X60650Y379795D01*
X60650Y379794D02*
X62794Y379794D01*
X62794Y379795D02*
X62865Y379793D01*
X62937Y379787D01*
X63007Y379778D01*
X63077Y379765D01*
X63147Y379748D01*
X63215Y379727D01*
X63282Y379703D01*
X63348Y379675D01*
X63412Y379644D01*
X63475Y379609D01*
X63535Y379571D01*
X63594Y379530D01*
X63650Y379486D01*
X63704Y379439D01*
X63755Y379390D01*
X63803Y379337D01*
X63849Y379282D01*
X63891Y379225D01*
X63931Y379165D01*
X63967Y379104D01*
X64000Y379040D01*
X64029Y378975D01*
X64055Y378909D01*
X64078Y378841D01*
X64097Y378772D01*
X64112Y378702D01*
X64123Y378632D01*
X64131Y378561D01*
X64135Y378490D01*
X64135Y378418D01*
X64131Y378347D01*
X64123Y378276D01*
X64112Y378206D01*
X64097Y378136D01*
X64078Y378067D01*
X64055Y377999D01*
X64029Y377933D01*
X64000Y377868D01*
X63967Y377804D01*
X63931Y377743D01*
X63891Y377683D01*
X63849Y377626D01*
X63803Y377571D01*
X63755Y377518D01*
X63704Y377469D01*
X63650Y377422D01*
X63594Y377378D01*
X63535Y377337D01*
X63475Y377299D01*
X63412Y377264D01*
X63348Y377233D01*
X63282Y377205D01*
X63215Y377181D01*
X63147Y377160D01*
X63077Y377143D01*
X63007Y377130D01*
X62937Y377121D01*
X62865Y377115D01*
X62794Y377113D01*
X63063Y379258D02*
X64135Y380331D01*
X60381Y382206D02*
X59309Y383546D01*
X64135Y383546D01*
X64135Y382206D02*
X64135Y384887D01*
D10*
X88900Y316230D02*
X38100Y316230D01*
X38100Y323850D01*
X38100Y331470D01*
X88900Y331470D01*
X88900Y323850D01*
X88900Y316230D01*
X38100Y323850D02*
X35560Y323850D01*
X88900Y323850D02*
X91440Y323850D01*
D11*
X59448Y313055D02*
X59448Y308229D01*
X59448Y313055D02*
X60789Y313055D01*
X60860Y313053D01*
X60932Y313047D01*
X61002Y313038D01*
X61072Y313025D01*
X61142Y313008D01*
X61210Y312987D01*
X61277Y312963D01*
X61343Y312935D01*
X61407Y312904D01*
X61470Y312869D01*
X61530Y312831D01*
X61589Y312790D01*
X61645Y312746D01*
X61699Y312699D01*
X61750Y312650D01*
X61798Y312597D01*
X61844Y312542D01*
X61886Y312485D01*
X61926Y312425D01*
X61962Y312364D01*
X61995Y312300D01*
X62024Y312235D01*
X62050Y312169D01*
X62073Y312101D01*
X62092Y312032D01*
X62107Y311962D01*
X62118Y311892D01*
X62126Y311821D01*
X62130Y311750D01*
X62130Y311678D01*
X62126Y311607D01*
X62118Y311536D01*
X62107Y311466D01*
X62092Y311396D01*
X62073Y311327D01*
X62050Y311259D01*
X62024Y311193D01*
X61995Y311128D01*
X61962Y311064D01*
X61926Y311003D01*
X61886Y310943D01*
X61844Y310886D01*
X61798Y310831D01*
X61750Y310778D01*
X61699Y310729D01*
X61645Y310682D01*
X61589Y310638D01*
X61530Y310597D01*
X61470Y310559D01*
X61407Y310524D01*
X61343Y310493D01*
X61277Y310465D01*
X61210Y310441D01*
X61142Y310420D01*
X61072Y310403D01*
X61002Y310390D01*
X60932Y310381D01*
X60860Y310375D01*
X60789Y310373D01*
X60789Y310374D02*
X59448Y310374D01*
X61057Y310374D02*
X62129Y308229D01*
X64871Y311983D02*
X66211Y313055D01*
X66211Y308229D01*
X64871Y308229D02*
X67552Y308229D01*
M02*
