M48
;GenerationSoftware,Autodesk,EAGLE,9.3.1*%
;CreationDate,2019-03-06T19:59:04Z*%
FMAT,2
ICI,OFF
METRIC,TZ,000.000
T9C0.800
T8C0.813
T7C0.900
T6C1.000
T5C1.016
T4C1.100
T3C1.300
T2C2.100
T1C3.251
%
G90
M71
T1
X3810Y7620
X13970Y7620
X55245Y3175
X3175Y106045
T2
X35560Y85090
X27940Y85090
X25400Y102870
T3
X52070Y97790
X52070Y102790
X52070Y83820
X52070Y88820
X52070Y69850
X52070Y74850
X52070Y55880
X52070Y60880
T4
X12700Y98990
X12700Y88900
T5
X5715Y16510
X6985Y13970
X8255Y16510
X9525Y13970
X10795Y16510
X12065Y13970
X46990Y21590
X46990Y24130
X46990Y26670
X46990Y8890
X46990Y36830
X46990Y34290
X46990Y31750
X53340Y36830
X53340Y34290
X53340Y31750
X46990Y13970
X46990Y16510
X46990Y11430
T6
X33020Y73660
X17780Y73660
X25400Y45720
X33020Y45720
T7
X5080Y53340
X5080Y45720
X18415Y38100
X10795Y38100
T8
X5715Y36830
X3810Y38100
X5715Y39370
T9
X39370Y3810
X39370Y6350
X39370Y8890
X39370Y11430
X39370Y13970
X39370Y16510
X39370Y19050
X39370Y21590
X39370Y24130
X39370Y26670
X39370Y29210
X39370Y31750
X24130Y3810
X24130Y6350
X24130Y8890
X24130Y24130
X24130Y26670
X24130Y29210
X24130Y31750
X24130Y39370
X39370Y39370
X39370Y36830
X39370Y34290
X24130Y36830
X24130Y34290
X24130Y11430
X29210Y5080
X31750Y5080
X34290Y5080
X24130Y21590
X24130Y19050
X24130Y16510
X24130Y13970
X29210Y2540
X31750Y2540
X34290Y2540
M30